<?xml version="1.0" encoding="UTF-8" standalone="no"?>
<svg
   xmlns:dc="http://purl.org/dc/elements/1.1/"
   xmlns:cc="http://creativecommons.org/ns#"
   xmlns:rdf="http://www.w3.org/1999/02/22-rdf-syntax-ns#"
   xmlns:svg="http://www.w3.org/2000/svg"
   xmlns="http://www.w3.org/2000/svg"
   xmlns:sodipodi="http://sodipodi.sourceforge.net/DTD/sodipodi-0.dtd"
   xmlns:inkscape="http://www.inkscape.org/namespaces/inkscape"
   width="293.55341mm"
   height="312.86505mm"
   viewBox="0 0 29.355339 31.286506"
   version="1.1"
   id="svg702"
   inkscape:version="0.92.4 (5da689c313, 2019-01-14)"
   sodipodi:docname="TCS logo (Stacked).svg">
  <defs
     id="defs696">
    <clipPath
       id="clipPath64"
       clipPathUnits="userSpaceOnUse">
      <path
         id="path62"
         d="m 31.725,352.554 h 7.713 v 6.629 h -7.713 z"
         inkscape:connector-curvature="0" />
    </clipPath>
    <clipPath
       id="clipPath70"
       clipPathUnits="userSpaceOnUse">
      <path
         id="path68"
         d="m 33.985,355.571 c -1.511,0 -2.166,0.882 -2.26,2.133 0.106,-1.408 0.503,-3.377 2.171,-4.428 0.349,-0.219 0.753,-0.402 1.222,-0.536 0.278,-0.08 0.579,-0.143 0.905,-0.186 1.077,0.392 2.011,1.031 3.415,3.293 -0.371,0.334 -1.726,3.004 -1.862,3.336 -0.372,-2.202 -1.987,-3.612 -3.591,-3.612"
         inkscape:connector-curvature="0" />
    </clipPath>
    <linearGradient
       id="linearGradient76"
       spreadMethod="pad"
       gradientUnits="userSpaceOnUse"
       y2="359.78"
       x2="39.970001"
       y1="350.89999"
       x1="30.01">
      <stop
         id="stop72"
         offset="0"
         style="stop-opacity:1;stop-color:#e7307c" />
      <stop
         id="stop74"
         offset="1"
         style="stop-opacity:1;stop-color:#6b4797" />
    </linearGradient>
    <clipPath
       id="clipPath86"
       clipPathUnits="userSpaceOnUse">
      <path
         id="path84"
         d="M 36.895,352.298 H 49.743 V 369.21 H 36.895 Z"
         inkscape:connector-curvature="0" />
    </clipPath>
    <clipPath
       id="clipPath92"
       clipPathUnits="userSpaceOnUse">
      <path
         id="path90"
         d="m 39.141,366.956 c -1.076,-1.076 -1.94,-2.694 -2.22,-4.291 -0.01,-0.17 -0.019,-0.342 -0.022,-0.515 -0.002,-0.081 -0.004,-0.161 -0.004,-0.242 0,-0.596 0.044,-1.178 0.131,-1.741 0.084,-0.552 0.282,-1.372 0.654,-2.278 0.137,-0.332 0.295,-0.674 0.483,-1.02 0.212,-0.392 0.459,-0.788 0.746,-1.174 0.307,-0.393 0.646,-0.757 1.017,-1.091 1.601,-1.443 3.783,-2.306 6.42,-2.306 0.85,0 1.794,0.057 2.701,0.232 0.002,0.001 0.004,0.001 0.006,0.001 0.234,0.046 0.465,0.1 0.69,0.161 -4.657,0.65 -6.686,2.853 -7.624,3.904 -0.108,0.122 -0.21,0.25 -0.309,0.382 -0.062,0.072 -0.126,0.141 -0.184,0.216 -0.163,0.207 -0.311,0.426 -0.445,0.658 -0.08,0.135 -0.155,0.275 -0.226,0.418 -0.092,0.187 -0.174,0.381 -0.249,0.579 -0.319,0.833 -0.498,1.761 -0.528,2.752 -0.003,0.066 -0.005,0.132 -0.006,0.197 0,0.037 -0.003,0.073 -0.003,0.11 0,0.039 0,0.078 0.002,0.117 0.002,0.148 0.008,0.293 0.016,0.438 0.001,0.017 0.002,0.033 0.003,0.049 0.009,0.14 0.021,0.28 0.035,0.417 0.361,3.355 2.535,5.847 6.388,5.847 0.982,0 1.77,-0.143 2.474,-0.381 -0.168,0.067 -0.336,0.132 -0.507,0.191 -1.153,0.403 -2.387,0.624 -3.611,0.624 -2.144,0 -4.254,-0.679 -5.828,-2.254"
         inkscape:connector-curvature="0" />
    </clipPath>
    <linearGradient
       id="linearGradient98"
       spreadMethod="pad"
       gradientUnits="userSpaceOnUse"
       y2="352.70999"
       x2="43.32"
       y1="369.07999"
       x1="43.32">
      <stop
         id="stop94"
         offset="0"
         style="stop-opacity:1;stop-color:#e53325" />
      <stop
         id="stop96"
         offset="1"
         style="stop-opacity:1;stop-color:#e7307c" />
    </linearGradient>
    <clipPath
       id="clipPath108"
       clipPathUnits="userSpaceOnUse">
      <path
         id="path106"
         d="m 28.346,352.181 h 8.858 v 24.543 h -8.858 z"
         inkscape:connector-curvature="0" />
    </clipPath>
    <clipPath
       id="clipPath114"
       clipPathUnits="userSpaceOnUse">
      <path
         id="path112"
         d="m 30.026,376.724 c -0.945,0 -1.68,-0.728 -1.68,-1.619 l 0.002,-14.757 c 0,-1.405 0.306,-4.732 1.382,-6.147 0.548,-0.72 1.261,-1.246 2.055,-1.58 0.661,-0.278 1.378,-0.423 2.102,-0.434 0.414,-0.006 0.83,0.033 1.239,0.113 0.164,0.032 0.327,0.069 0.489,0.116 0.14,0.04 0.28,0.085 0.418,0.137 -0.33,0.043 -0.634,0.106 -0.915,0.187 -0.469,0.134 -0.873,0.317 -1.222,0.536 -1.674,1.055 -2.134,2.991 -2.223,4.836 v 10.648 h 4.192 c 0.739,0 1.339,0.6 1.339,1.347 0,0.74 -0.6,1.345 -1.339,1.345 h -4.192 v 3.653 c 0,0.891 -0.702,1.619 -1.647,1.619"
         inkscape:connector-curvature="0" />
    </clipPath>
    <linearGradient
       id="linearGradient120"
       spreadMethod="pad"
       gradientUnits="userSpaceOnUse"
       y2="352.45999"
       x2="32.380001"
       y1="371.45001"
       x1="32.380001">
      <stop
         id="stop116"
         offset="0"
         style="stop-opacity:1;stop-color:#e53325" />
      <stop
         id="stop118"
         offset="1"
         style="stop-opacity:1;stop-color:#e7307c" />
    </linearGradient>
    <clipPath
       id="clipPath130"
       clipPathUnits="userSpaceOnUse">
      <path
         id="path128"
         d="m 28.346,365.253 h 3.327 v 11.471 h -3.327 z"
         inkscape:connector-curvature="0" />
    </clipPath>
    <clipPath
       id="clipPath136"
       clipPathUnits="userSpaceOnUse">
      <path
         id="path134"
         d="m 30.026,376.724 c -0.945,0 -1.68,-0.728 -1.68,-1.619 0,0 0.002,-6.997 0.003,-9.852 0,3.784 1.449,6.199 3.324,6.199 v 3.653 c 0,0.891 -0.702,1.619 -1.647,1.619"
         inkscape:connector-curvature="0" />
    </clipPath>
    <linearGradient
       id="linearGradient142"
       spreadMethod="pad"
       gradientUnits="userSpaceOnUse"
       y2="365.67001"
       x2="30.49"
       y1="376.78"
       x1="30.49">
      <stop
         id="stop138"
         offset="0"
         style="stop-opacity:1;stop-color:#fecc07" />
      <stop
         id="stop140"
         offset="1"
         style="stop-opacity:1;stop-color:#e74e24" />
    </linearGradient>
    <clipPath
       id="clipPath152"
       clipPathUnits="userSpaceOnUse">
      <path
         id="path150"
         d="m 57.55,370.1 h 9.77e-4 v 10e-4 H 57.55 Z"
         inkscape:connector-curvature="0" />
    </clipPath>
    <clipPath
       id="clipPath158"
       clipPathUnits="userSpaceOnUse">
      <path
         id="path156"
         d="m 57.55,370.1 0.001,10e-4 c 0,0 0,0 -0.001,-10e-4"
         inkscape:connector-curvature="0" />
    </clipPath>
    <linearGradient
       id="linearGradient164"
       spreadMethod="pad"
       gradientUnits="userSpaceOnUse"
       y2="370.10001"
       x2="57.59"
       y1="370.10001"
       x1="57.509998">
      <stop
         id="stop160"
         offset="0"
         style="stop-opacity:1;stop-color:#93c13e" />
      <stop
         id="stop162"
         offset="1"
         style="stop-opacity:1;stop-color:#977db7" />
    </linearGradient>
    <clipPath
       id="clipPath174"
       clipPathUnits="userSpaceOnUse">
      <path
         id="path172"
         d="m 57.995,370.542 h 0.007 v 0.008 h -0.007 z"
         inkscape:connector-curvature="0" />
    </clipPath>
    <clipPath
       id="clipPath180"
       clipPathUnits="userSpaceOnUse">
      <path
         id="path178"
         d="m 57.995,370.542 c 0,0.001 0.001,0.002 0.002,0.003 -10e-4,-0.001 -0.002,-0.002 -0.002,-0.003 z m 0.002,0.003 z m 0,0 c 0.003,0.003 0.005,0.005 0.005,0.005 0,0 -0.002,-0.002 -0.005,-0.005"
         inkscape:connector-curvature="0" />
    </clipPath>
    <linearGradient
       id="linearGradient186"
       spreadMethod="pad"
       gradientUnits="userSpaceOnUse"
       y2="370.54999"
       x2="61.139999"
       y1="370.54999"
       x1="54.849998">
      <stop
         id="stop182"
         offset="0"
         style="stop-opacity:1;stop-color:#93c13e" />
      <stop
         id="stop184"
         offset="1"
         style="stop-opacity:1;stop-color:#977db7" />
    </linearGradient>
    <clipPath
       id="clipPath196"
       clipPathUnits="userSpaceOnUse">
      <path
         id="path194"
         d="m 64.523,352.996 h 0.022 v 0.01 h -0.022 z"
         inkscape:connector-curvature="0" />
    </clipPath>
    <clipPath
       id="clipPath202"
       clipPathUnits="userSpaceOnUse">
      <path
         id="path200"
         d="m 64.523,352.996 c 0.003,0.001 0.006,0.003 0.009,0.004 -0.005,-0.002 -0.009,-0.004 -0.009,-0.004 z M 64.532,353 c 0.004,0.002 0.008,0.004 0.013,0.006 -0.004,-0.002 -0.009,-0.004 -0.013,-0.006"
         inkscape:connector-curvature="0" />
    </clipPath>
    <linearGradient
       id="linearGradient208"
       spreadMethod="pad"
       gradientUnits="userSpaceOnUse"
       y2="353"
       x2="97.309998"
       y1="353"
       x1="66.580002">
      <stop
         id="stop204"
         offset="0"
         style="stop-opacity:1;stop-color:#93c13e" />
      <stop
         id="stop206"
         offset="1"
         style="stop-opacity:1;stop-color:#977db7" />
    </linearGradient>
    <clipPath
       id="clipPath218"
       clipPathUnits="userSpaceOnUse">
      <path
         id="path216"
         d="m 55.494,352.278 h 10.054 v 7.827 H 55.494 Z"
         inkscape:connector-curvature="0" />
    </clipPath>
    <clipPath
       id="clipPath224"
       clipPathUnits="userSpaceOnUse">
      <path
         id="path222"
         d="m 63.746,357.417 c 0,-1.677 -1.171,-2.45 -2.982,-2.45 -1.465,0 -2.475,0.48 -3.222,0.773 -1.198,0.452 -2.048,-0.373 -2.048,-1.226 0,-0.573 0.404,-0.957 0.878,-1.209 0.459,-0.245 0.965,-0.433 1.46,-0.591 1.008,-0.321 2.064,-0.436 3.119,-0.436 0.716,0 1.436,0.048 2.138,0.199 0.654,0.141 1.407,0.372 1.919,0.826 0.056,0.05 0.109,0.105 0.152,0.168 0.313,0.45 0.388,1.065 0.388,1.55 0,1.577 -0.795,2.929 -1.99,4.06 -0.383,0.363 -0.699,0.743 -1.235,1.024 0.954,-0.714 1.423,-1.57 1.423,-2.688"
         inkscape:connector-curvature="0" />
    </clipPath>
    <linearGradient
       id="linearGradient230"
       spreadMethod="pad"
       gradientUnits="userSpaceOnUse"
       y2="352.48999"
       x2="54.82"
       y1="360.60001"
       x1="67.330002">
      <stop
         id="stop226"
         offset="0"
         style="stop-opacity:1;stop-color:#e7307c" />
      <stop
         id="stop228"
         offset="1"
         style="stop-opacity:1;stop-color:#6b4797" />
    </linearGradient>
    <clipPath
       id="clipPath240"
       clipPathUnits="userSpaceOnUse">
      <path
         id="path238"
         d="m 49.047,352.53 h 0.006 v 0.001 h -0.006 z"
         inkscape:connector-curvature="0" />
    </clipPath>
    <clipPath
       id="clipPath246"
       clipPathUnits="userSpaceOnUse">
      <path
         id="path244"
         d="m 49.047,352.53 c 0.002,0.001 0.004,0.001 0.006,0.001 -0.002,0 -0.004,0 -0.006,-0.001"
         inkscape:connector-curvature="0" />
    </clipPath>
    <linearGradient
       id="linearGradient252"
       spreadMethod="pad"
       gradientUnits="userSpaceOnUse"
       y2="352.53"
       x2="60.889999"
       y1="352.53"
       x1="19.870001">
      <stop
         id="stop248"
         offset="0"
         style="stop-opacity:1;stop-color:#93c13e" />
      <stop
         id="stop250"
         offset="1"
         style="stop-opacity:1;stop-color:#977db7" />
    </linearGradient>
    <clipPath
       id="clipPath262"
       clipPathUnits="userSpaceOnUse">
      <path
         id="path260"
         d="m 57.337,369.932 h 10e-4 -10e-4"
         inkscape:connector-curvature="0" />
    </clipPath>
    <linearGradient
       id="linearGradient268"
       spreadMethod="pad"
       gradientUnits="userSpaceOnUse"
       y2="369.92999"
       x2="57.369999"
       y1="369.92999"
       x1="57.310001">
      <stop
         id="stop264"
         offset="0"
         style="stop-opacity:1;stop-color:#93c13e" />
      <stop
         id="stop266"
         offset="1"
         style="stop-opacity:1;stop-color:#977db7" />
    </linearGradient>
    <clipPath
       id="clipPath278"
       clipPathUnits="userSpaceOnUse">
      <path
         id="path276"
         d="m 41.81,352.692 h 16.228 v 17.797 H 41.81 Z"
         inkscape:connector-curvature="0" />
    </clipPath>
    <clipPath
       id="clipPath284"
       clipPathUnits="userSpaceOnUse">
      <path
         id="path282"
         d="m 57.338,369.932 h -10e-4 c -0.064,-0.057 -0.125,-0.117 -0.183,-0.179 -0.461,-0.444 -0.833,-0.966 -1.128,-1.535 -0.264,-0.503 -0.471,-1.038 -0.644,-1.573 -0.194,-0.604 -0.35,-1.224 -0.488,-1.852 -0.464,-2.078 -0.757,-4.226 -1.749,-6.032 -0.793,-1.443 -1.973,-2.457 -3.453,-3.165 -0.871,-0.384 -1.826,-0.636 -3.079,-0.636 -0.602,0 -1.163,0.061 -1.684,0.181 -1.302,0.295 -2.344,0.943 -3.119,1.837 0.099,-0.132 0.201,-0.26 0.309,-0.382 0.938,-1.051 2.967,-3.254 7.624,-3.904 0.457,0.125 0.894,0.285 1.293,0.489 0.455,0.234 0.886,0.501 1.295,0.794 0.647,0.471 1.233,1.009 1.756,1.606 0.847,0.966 1.524,2.076 2.029,3.273 0.198,0.472 0.371,0.957 0.514,1.452 0.08,0.271 0.153,0.546 0.22,0.821 0.218,0.876 0.451,2.012 0.64,2.902 0.004,0.017 -0.669,1.719 -0.716,2.762 -0.031,0.7 0.083,1.436 0.301,2.155 0.053,0.337 0.148,0.473 0.302,0.786 0.014,0.029 0.053,0.056 0.068,0.084 0.019,0.016 0.247,0.177 0.183,0.22 l 0.41,0.453 c -0.056,-0.042 -0.649,-0.512 -0.7,-0.557"
         inkscape:connector-curvature="0" />
    </clipPath>
    <linearGradient
       id="linearGradient290"
       spreadMethod="pad"
       gradientUnits="userSpaceOnUse"
       y2="368.04999"
       x2="57.439999"
       y1="350.64999"
       x1="37.200001">
      <stop
         id="stop286"
         offset="0"
         style="stop-opacity:1;stop-color:#e7307c" />
      <stop
         id="stop288"
         offset="1"
         style="stop-opacity:1;stop-color:#6b4797" />
    </linearGradient>
    <clipPath
       id="clipPath300"
       clipPathUnits="userSpaceOnUse">
      <path
         id="path298"
         d="m 36.921,362.665 h 15.746 v 8.785 H 36.921 Z"
         inkscape:connector-curvature="0" />
    </clipPath>
    <clipPath
       id="clipPath306"
       clipPathUnits="userSpaceOnUse">
      <path
         id="path304"
         d="m 43.523,371.079 c -0.769,-0.222 -1.572,-0.525 -2.251,-0.954 -0.66,-0.417 -1.273,-0.906 -1.817,-1.46 -0.081,-0.081 -0.164,-0.16 -0.241,-0.245 -0.282,-0.31 -0.541,-0.64 -0.773,-0.991 -0.14,-0.217 -0.271,-0.44 -0.393,-0.67 0,0 -0.001,-0.001 -0.001,-0.002 -0.642,-1.211 -1.028,-2.599 -1.126,-4.092 0.28,1.597 1.144,3.215 2.22,4.291 2.473,2.473 6.266,2.737 9.439,1.63 0.171,-0.059 0.339,-0.124 0.507,-0.191 0.383,-0.153 0.76,-0.323 1.128,-0.507 0.107,-0.054 0.215,-0.111 0.322,-0.169 0.239,-0.134 0.48,-0.239 0.799,-0.239 0.117,0 0.233,0.016 0.342,0.048 0.561,0.156 0.989,0.694 0.989,1.362 0,0.507 -0.239,0.825 -0.612,1.092 -1.156,0.833 -2.67,1.177 -4.059,1.354 -0.575,0.073 -1.147,0.114 -1.716,0.114 -0.927,0 -1.847,-0.109 -2.757,-0.371"
         inkscape:connector-curvature="0" />
    </clipPath>
    <linearGradient
       id="linearGradient312"
       spreadMethod="pad"
       gradientUnits="userSpaceOnUse"
       y2="367.06"
       x2="52.669998"
       y1="367.06"
       x1="36.919998">
      <stop
         id="stop308"
         offset="0"
         style="stop-opacity:1;stop-color:#fecc07" />
      <stop
         id="stop310"
         offset="1"
         style="stop-opacity:1;stop-color:#e74e24" />
    </linearGradient>
    <clipPath
       id="clipPath322"
       clipPathUnits="userSpaceOnUse">
      <path
         id="path320"
         d="m 56.856,364.486 h 9.69 v 6.988 h -9.69 z"
         inkscape:connector-curvature="0" />
    </clipPath>
    <clipPath
       id="clipPath328"
       clipPathUnits="userSpaceOnUse">
      <path
         id="path326"
         d="m 58.189,370.591 c -0.574,-0.352 -0.945,-0.97 -1.141,-1.6 -0.126,-0.404 -0.192,-0.834 -0.084,-1.25 0.169,-0.648 0.709,-1.129 1.264,-1.503 0.985,-0.664 2.092,-1.124 3.099,-1.752 -0.529,0.398 -1.05,0.834 -1.385,1.405 -0.335,0.572 -0.455,1.307 -0.159,1.899 0.236,0.475 0.712,0.8 1.222,0.945 0.511,0.145 1.054,0.125 1.578,0.045 0.604,-0.092 1.194,-0.262 1.771,-0.463 0.293,-0.103 0.592,-0.215 0.902,-0.212 0.373,0.004 0.74,0.184 0.97,0.476 0.231,0.293 0.32,0.692 0.236,1.054 -0.132,0.574 -0.649,0.981 -1.185,1.225 -0.769,0.349 -1.624,0.458 -2.466,0.526 -0.747,0.061 -1.501,0.088 -2.247,0.008 -0.737,-0.08 -1.464,-0.271 -2.11,-0.641 -0.039,-0.023 -0.077,-0.045 -0.116,-0.069"
         inkscape:connector-curvature="0" />
    </clipPath>
    <linearGradient
       id="linearGradient334"
       spreadMethod="pad"
       gradientUnits="userSpaceOnUse"
       y2="367.95999"
       x2="66.489998"
       y1="367.95999"
       x1="57.110001">
      <stop
         id="stop330"
         offset="0"
         style="stop-opacity:1;stop-color:#fecc07" />
      <stop
         id="stop332"
         offset="1"
         style="stop-opacity:1;stop-color:#e74e24" />
    </linearGradient>
    <clipPath
       id="clipPath344"
       clipPathUnits="userSpaceOnUse">
      <path
         id="path342"
         d="m 56.551,353.041 h 10.848 v 15.906 H 56.551 Z"
         inkscape:connector-curvature="0" />
    </clipPath>
    <clipPath
       id="clipPath350"
       clipPathUnits="userSpaceOnUse">
      <path
         id="path348"
         d="m 57.574,363.886 c 0.515,-0.832 1.327,-1.41 2.115,-1.961 0.867,-0.606 1.727,-1.218 2.609,-1.804 0.618,-0.409 1.166,-0.919 1.651,-1.478 0.881,-1.014 1.647,-2.286 1.585,-3.685 -0.011,-0.252 -0.042,-0.503 -0.115,-0.745 -0.123,-0.41 -0.387,-0.945 -0.77,-1.172 1.946,1.155 2.75,3.4 2.245,5.575 -0.49,2.107 -2.18,3.536 -3.861,4.749 -0.335,0.243 -0.677,0.477 -1.024,0.702 -0.347,0.226 -0.7,0.438 -1.058,0.645 -0.293,0.17 -0.582,0.345 -0.872,0.519 -0.409,0.245 -0.816,0.493 -1.211,0.759 -0.628,0.423 -1.277,0.925 -1.615,1.622 -0.209,0.431 -0.29,0.888 -0.219,1.335 -0.483,-1.593 -0.356,-3.613 0.54,-5.061"
         inkscape:connector-curvature="0" />
    </clipPath>
    <linearGradient
       id="linearGradient356"
       spreadMethod="pad"
       gradientUnits="userSpaceOnUse"
       y2="355.13"
       x2="66.550003"
       y1="367.73999"
       x1="56.959999">
      <stop
         id="stop352"
         offset="0"
         style="stop-opacity:1;stop-color:#e53325" />
      <stop
         id="stop354"
         offset="1"
         style="stop-opacity:1;stop-color:#e7307c" />
    </linearGradient>
  </defs>
  <sodipodi:namedview
     id="base"
     pagecolor="#ffffff"
     bordercolor="#666666"
     borderopacity="1.0"
     inkscape:pageopacity="0.0"
     inkscape:pageshadow="2"
     inkscape:zoom="3.02"
     inkscape:cx="173.39944"
     inkscape:cy="66.206645"
     inkscape:document-units="mm"
     inkscape:current-layer="g1086"
     inkscape:document-rotation="0"
     showgrid="false"
     showguides="true"
     inkscape:window-width="1920"
     inkscape:window-height="1001"
     inkscape:window-x="-9"
     inkscape:window-y="41"
     inkscape:window-maximized="1"
     inkscape:guide-bbox="true">
    <sodipodi:guide
       position="80.801293,13.40997"
       orientation="1,0"
       id="guide169"
       inkscape:locked="false" />
  </sodipodi:namedview>
  <metadata
     id="metadata699">
    <rdf:RDF>
      <cc:Work
         rdf:about="">
        <dc:format>image/svg+xml</dc:format>
        <dc:type
           rdf:resource="http://purl.org/dc/dcmitype/StillImage" />
        <dc:title></dc:title>
      </cc:Work>
    </rdf:RDF>
  </metadata>
  <g
     inkscape:label="Layer 1"
     inkscape:groupmode="layer"
     id="layer1"
     transform="translate(44.88104,4.2681175)">
    <g
       id="g1151"
       transform="matrix(1.8972496,0,0,1.8972496,-34.097229,-11.639041)">
      <g
         id="g1086">
        <g
           transform="matrix(0.26463473,0,0,-0.26463473,0.49616123,14.326491)"
           id="g44">
          <path
             id="path46"
             style="fill:#3f84c5;fill-opacity:1;fill-rule:evenodd;stroke:none"
             d="m -17.393599,0 v 1.765 h -5.922998 V 0 h 1.736999 v -4.367 h 2.45 V 0 Z m 3.051,-0.701 -1.247,-3.666 h -2.393999 l 2.345999,6.132 h 2.590999 l 2.345,-6.132 h -2.394 z M -5.3665999,0 V 1.765 H -11.2886 V 0 h 1.7359997 v -4.367 h 2.45 V 0 Z m 3.0510008,-0.701 -1.2480004,-3.666 h -2.3930006 l 2.3460006,6.132 h 2.5910008 l 2.3440005,-6.132 h -2.3930005"
             inkscape:connector-curvature="0" />
        </g>
        <g
           transform="matrix(0.26463473,0,0,-0.26463473,-4.4367805,17.634424)"
           id="g48">
          <path
             id="path50"
             style="fill:#3f84c5;fill-opacity:1;fill-rule:evenodd;stroke:none"
             d="m 0,0 c -0.296,-0.134 -0.768,-0.223 -1.222,-0.223 -1.348,0 -2.135,0.857 -2.135,2.208 0,1.473 0.899,2.254 2.15,2.254 0.501,0 0.91,-0.11 1.195,-0.239 l 0.244,0.891 c -0.227,0.123 -0.747,0.272 -1.486,0.272 -1.874,0 -3.283,-1.218 -3.283,-3.234 0,-1.867 1.186,-3.09 3.132,-3.09 0.741,0 1.325,0.145 1.59,0.278 z m 3.396,-1.166 c 1.681,0 2.925,1.175 2.925,3.23 0,1.752 -1.055,3.103 -2.843,3.103 -1.731,0 -2.92,-1.329 -2.92,-3.213 0,-1.795 1.096,-3.12 2.829,-3.12 z m 0.029,0.897 c -1.07,0 -1.696,1.032 -1.693,2.251 -0.002,1.222 0.588,2.289 1.705,2.289 1.118,0 1.693,-1.093 1.693,-2.25 0,-1.283 -0.613,-2.29 -1.695,-2.29 z M 8.317,-1.064 V 1.13 c 0,1.006 -0.016,1.816 -0.059,2.612 L 8.286,3.748 C 8.588,3.054 8.988,2.302 9.386,1.633 l 1.601,-2.697 h 1.16 V 5.067 H 11.111 V 2.928 c 0,-0.937 0.022,-1.727 0.1,-2.541 L 11.19,0.38 C 10.907,1.046 10.552,1.76 10.146,2.435 L 8.561,5.067 h -1.28 v -6.131 z m 4.846,0.293 c 0.335,-0.204 1.009,-0.39 1.658,-0.39 1.583,0 2.325,0.856 2.325,1.843 0,0.881 -0.513,1.416 -1.577,1.823 -0.818,0.312 -1.173,0.534 -1.173,1.004 0,0.36 0.302,0.738 1.012,0.738 0.576,0 1.003,-0.175 1.225,-0.291 l 0.269,0.904 c -0.319,0.162 -0.807,0.303 -1.471,0.303 -1.329,0 -2.17,-0.757 -2.17,-1.761 0,-0.879 0.648,-1.422 1.661,-1.781 0.775,-0.282 1.086,-0.555 1.086,-1.017 0,-0.503 -0.401,-0.838 -1.114,-0.838 -0.571,0 -1.122,0.182 -1.482,0.392 z m 4.983,5.838 V 1.559 c 0,-1.929 0.924,-2.725 2.337,-2.725 1.482,0 2.454,0.841 2.454,2.731 V 5.067 H 21.816 V 1.492 c 0,-1.202 -0.485,-1.756 -1.293,-1.756 -0.757,0 -1.255,0.558 -1.255,1.756 v 3.575 z m 6.067,-6.131 h 3.641 v 0.939 h -2.522 v 5.192 h -1.119 z m 4.769,0 h 1.122 v 5.189 h 1.768 v 0.942 h -4.64 V 4.125 h 1.75 z m 6.114,1.733 0.556,-1.733 h 1.201 l -1.991,6.131 h -1.427 l -1.969,-6.131 h 1.16 l 0.522,1.733 z m -1.764,0.846 0.473,1.514 c 0.108,0.366 0.202,0.79 0.292,1.15 h 0.019 C 34.21,3.824 34.309,3.405 34.427,3.026 L 34.911,1.515 Z M 38.74,-1.064 V 1.13 c 0,1.006 -0.015,1.816 -0.06,2.612 l 0.03,0.006 c 0.302,-0.694 0.701,-1.446 1.099,-2.115 l 1.6,-2.697 h 1.16 V 5.067 H 41.534 V 2.928 c 0,-0.937 0.022,-1.727 0.099,-2.541 L 41.614,0.38 c -0.285,0.666 -0.639,1.38 -1.045,2.055 l -1.585,2.632 h -1.28 V -1.064 Z M 48.073,0 c -0.297,-0.134 -0.769,-0.223 -1.222,-0.223 -1.349,0 -2.136,0.856 -2.136,2.208 0,1.473 0.899,2.254 2.151,2.254 0.5,0 0.91,-0.11 1.194,-0.239 l 0.244,0.891 c -0.228,0.123 -0.748,0.272 -1.485,0.272 -1.875,0 -3.284,-1.218 -3.284,-3.234 0,-1.867 1.187,-3.091 3.131,-3.091 0.742,0 1.325,0.146 1.591,0.279 z m 3.644,-1.064 v 2.583 l 2.038,3.548 H 52.492 L 51.754,3.496 C 51.545,3.051 51.375,2.67 51.224,2.279 h -0.02 C 51.036,2.694 50.879,3.043 50.67,3.493 l -0.731,1.574 h -1.28 l 1.94,-3.58 v -2.551"
             inkscape:connector-curvature="0" />
        </g>
        <g
           transform="matrix(0.26463473,0,0,-0.26463473,2.9230618,20.272038)"
           id="g52">
          <path
             id="path54"
             style="fill:#3f84c5;fill-opacity:1;fill-rule:evenodd;stroke:none"
             d="m 0,0 c 0.335,-0.205 1.009,-0.391 1.657,-0.391 1.583,0 2.326,0.857 2.326,1.844 0,0.881 -0.512,1.416 -1.577,1.822 -0.818,0.313 -1.173,0.534 -1.173,1.004 0,0.361 0.302,0.739 1.013,0.739 0.576,0 1.003,-0.175 1.225,-0.291 L 3.739,5.63 C 3.419,5.792 2.933,5.934 2.269,5.934 0.939,5.934 0.098,5.177 0.098,4.173 0.098,3.294 0.746,2.75 1.759,2.391 2.534,2.109 2.845,1.836 2.845,1.374 2.845,0.872 2.444,0.537 1.73,0.537 1.16,0.537 0.609,0.719 0.249,0.928 Z m -0.986,3.341 h -2.31 v 1.575 h 2.448 v 0.922 h -3.569 v -6.132 h 3.704 v 0.922 h -2.583 v 1.798 h 2.31 z M -5.548,0.77 C -5.844,0.637 -6.317,0.547 -6.77,0.547 c -1.348,0 -2.135,0.857 -2.135,2.208 0,1.474 0.899,2.255 2.15,2.255 0.5,0 0.91,-0.111 1.195,-0.24 l 0.244,0.892 c -0.227,0.123 -0.747,0.272 -1.486,0.272 -1.874,0 -3.283,-1.218 -3.283,-3.235 0,-1.866 1.186,-3.09 3.132,-3.09 0.741,0 1.325,0.146 1.59,0.279 z m -5.499,5.068 h -1.121 v -6.132 h 1.121 z m -1.121,0 z m -2.779,-6.132 2.119,6.132 h -1.191 l -0.895,-2.805 c -0.237,-0.745 -0.461,-1.494 -0.623,-2.217 h -0.02 c -0.159,0.741 -0.368,1.459 -0.601,2.233 l -0.836,2.789 h -1.222 l 1.984,-6.132 z m -9.155,3.635 h -2.311 v 1.575 h 2.448 v 0.922 h -3.569 v -6.132 h 3.704 v 0.922 h -2.583 v 1.798 h 2.311 z M -32.524,0 c 0.335,-0.205 1.009,-0.391 1.657,-0.391 1.583,0 2.326,0.857 2.326,1.844 0,0.881 -0.512,1.416 -1.577,1.822 -0.818,0.313 -1.173,0.534 -1.173,1.004 0,0.361 0.301,0.739 1.013,0.739 0.576,0 1.003,-0.175 1.225,-0.291 l 0.268,0.903 c -0.32,0.162 -0.806,0.304 -1.471,0.304 -1.329,0 -2.169,-0.757 -2.169,-1.761 0,-0.879 0.647,-1.422 1.66,-1.782 0.775,-0.282 1.086,-0.555 1.086,-1.017 0,-0.502 -0.4,-0.837 -1.115,-0.837 -0.57,0 -1.12,0.182 -1.481,0.391 z m 9.675,-0.294 h 1.103 v 2.501 h 0.559 c 0.632,-0.015 0.921,-0.272 1.095,-1.064 0.17,-0.757 0.316,-1.259 0.409,-1.437 h 1.142 c -0.122,0.238 -0.288,0.936 -0.48,1.697 -0.152,0.591 -0.407,1.01 -0.848,1.177 v 0.026 c 0.573,0.203 1.105,0.737 1.105,1.52 0,0.523 -0.19,0.944 -0.523,1.222 -0.411,0.342 -1.118,0.49 -1.877,0.49 -0.759,0 -1.262,-0.054 -1.685,-0.131 z m 1.103,5.239 c 0.113,0.028 0.338,0.055 0.69,0.055 0.719,-0.002 1.185,-0.312 1.185,-0.976 0,-0.604 -0.464,-1.001 -1.218,-1.001 h -0.657"
             inkscape:connector-curvature="0" />
        </g>
        <g
           id="g58"
           transform="matrix(0.35277777,0,0,-0.35277777,-15.611591,136.78491)">
          <g
             clip-path="url(#clipPath64)"
             id="g60">
            <g
               clip-path="url(#clipPath70)"
               id="g66">
              <path
                 id="path78"
                 style="fill:url(#linearGradient76);stroke:none"
                 d="m 33.985,355.571 c -1.511,0 -2.166,0.882 -2.26,2.133 0.106,-1.408 0.503,-3.377 2.171,-4.428 0.349,-0.219 0.753,-0.402 1.222,-0.536 0.278,-0.08 0.579,-0.143 0.905,-0.186 1.077,0.392 2.011,1.031 3.415,3.293 -0.371,0.334 -1.726,3.004 -1.862,3.336 -0.372,-2.202 -1.987,-3.612 -3.591,-3.612"
                 inkscape:connector-curvature="0" />
            </g>
          </g>
        </g>
        <g
           id="g80"
           transform="matrix(0.35277777,0,0,-0.35277777,-15.611591,136.78491)">
          <g
             clip-path="url(#clipPath86)"
             id="g82">
            <g
               clip-path="url(#clipPath92)"
               id="g88">
              <path
                 id="path100"
                 style="fill:url(#linearGradient98);stroke:none"
                 d="m 39.141,366.956 c -1.076,-1.076 -1.94,-2.694 -2.22,-4.291 -0.01,-0.17 -0.019,-0.342 -0.022,-0.515 -0.002,-0.081 -0.004,-0.161 -0.004,-0.242 0,-0.596 0.044,-1.178 0.131,-1.741 0.084,-0.552 0.282,-1.372 0.654,-2.278 0.137,-0.332 0.295,-0.674 0.483,-1.02 0.212,-0.392 0.459,-0.788 0.746,-1.174 0.307,-0.393 0.646,-0.757 1.017,-1.091 1.601,-1.443 3.783,-2.306 6.42,-2.306 0.85,0 1.794,0.057 2.701,0.232 0.002,0.001 0.004,0.001 0.006,0.001 0.234,0.046 0.465,0.1 0.69,0.161 -4.657,0.65 -6.686,2.853 -7.624,3.904 -0.108,0.122 -0.21,0.25 -0.309,0.382 -0.062,0.072 -0.126,0.141 -0.184,0.216 -0.163,0.207 -0.311,0.426 -0.445,0.658 -0.08,0.135 -0.155,0.275 -0.226,0.418 -0.092,0.187 -0.174,0.381 -0.249,0.579 -0.319,0.833 -0.498,1.761 -0.528,2.752 -0.003,0.066 -0.005,0.132 -0.006,0.197 0,0.037 -0.003,0.073 -0.003,0.11 0,0.039 0,0.078 0.002,0.117 0.002,0.148 0.008,0.293 0.016,0.438 0.001,0.017 0.002,0.033 0.003,0.049 0.009,0.14 0.021,0.28 0.035,0.417 0.361,3.355 2.535,5.847 6.388,5.847 0.982,0 1.77,-0.143 2.474,-0.381 -0.168,0.067 -0.336,0.132 -0.507,0.191 -1.153,0.403 -2.387,0.624 -3.611,0.624 -2.144,0 -4.254,-0.679 -5.828,-2.254"
                 inkscape:connector-curvature="0" />
            </g>
          </g>
        </g>
        <g
           id="g102"
           transform="matrix(0.35277777,0,0,-0.35277777,-15.611591,136.78491)">
          <g
             clip-path="url(#clipPath108)"
             id="g104">
            <g
               clip-path="url(#clipPath114)"
               id="g110">
              <path
                 id="path122"
                 style="fill:url(#linearGradient120);stroke:none"
                 d="m 30.026,376.724 c -0.945,0 -1.68,-0.728 -1.68,-1.619 l 0.002,-14.757 c 0,-1.405 0.306,-4.732 1.382,-6.147 0.548,-0.72 1.261,-1.246 2.055,-1.58 0.661,-0.278 1.378,-0.423 2.102,-0.434 0.414,-0.006 0.83,0.033 1.239,0.113 0.164,0.032 0.327,0.069 0.489,0.116 0.14,0.04 0.28,0.085 0.418,0.137 -0.33,0.043 -0.634,0.106 -0.915,0.187 -0.469,0.134 -0.873,0.317 -1.222,0.536 -1.674,1.055 -2.134,2.991 -2.223,4.836 v 10.648 h 4.192 c 0.739,0 1.339,0.6 1.339,1.347 0,0.74 -0.6,1.345 -1.339,1.345 h -4.192 v 3.653 c 0,0.891 -0.702,1.619 -1.647,1.619"
                 inkscape:connector-curvature="0" />
            </g>
          </g>
        </g>
        <g
           id="g124"
           transform="matrix(0.35277777,0,0,-0.35277777,-15.611591,136.78491)">
          <g
             clip-path="url(#clipPath130)"
             id="g126">
            <g
               clip-path="url(#clipPath136)"
               id="g132">
              <path
                 id="path144"
                 style="fill:url(#linearGradient142);stroke:none"
                 d="m 30.026,376.724 c -0.945,0 -1.68,-0.728 -1.68,-1.619 0,0 0.002,-6.997 0.003,-9.852 0,3.784 1.449,6.199 3.324,6.199 v 3.653 c 0,0.891 -0.702,1.619 -1.647,1.619"
                 inkscape:connector-curvature="0" />
            </g>
          </g>
        </g>
        <g
           id="g146"
           transform="matrix(0.35277777,0,0,-0.35277777,-15.611591,136.78491)">
          <g
             clip-path="url(#clipPath152)"
             id="g148">
            <g
               clip-path="url(#clipPath158)"
               id="g154">
              <path
                 id="path166"
                 style="fill:url(#linearGradient164);stroke:none"
                 d="m 57.55,370.1 0.001,10e-4 c 0,0 0,0 -0.001,-10e-4"
                 inkscape:connector-curvature="0" />
            </g>
          </g>
        </g>
        <g
           id="g168"
           transform="matrix(0.35277777,0,0,-0.35277777,-15.611591,136.78491)">
          <g
             clip-path="url(#clipPath174)"
             id="g170">
            <g
               clip-path="url(#clipPath180)"
               id="g176">
              <path
                 id="path188"
                 style="fill:url(#linearGradient186);stroke:none"
                 d="m 57.995,370.542 c 0,0.001 0.001,0.002 0.002,0.003 -10e-4,-0.001 -0.002,-0.002 -0.002,-0.003 z m 0.002,0.003 z m 0,0 c 0.003,0.003 0.005,0.005 0.005,0.005 0,0 -0.002,-0.002 -0.005,-0.005"
                 inkscape:connector-curvature="0" />
            </g>
          </g>
        </g>
        <g
           id="g190"
           transform="matrix(0.35277777,0,0,-0.35277777,-15.611591,136.78491)">
          <g
             clip-path="url(#clipPath196)"
             id="g192">
            <g
               clip-path="url(#clipPath202)"
               id="g198">
              <path
                 id="path210"
                 style="fill:url(#linearGradient208);stroke:none"
                 d="m 64.523,352.996 c 0.003,0.001 0.006,0.003 0.009,0.004 -0.005,-0.002 -0.009,-0.004 -0.009,-0.004 z M 64.532,353 c 0.004,0.002 0.008,0.004 0.013,0.006 -0.004,-0.002 -0.009,-0.004 -0.013,-0.006"
                 inkscape:connector-curvature="0" />
            </g>
          </g>
        </g>
        <g
           id="g212"
           transform="matrix(0.35277777,0,0,-0.35277777,-15.611591,136.78491)">
          <g
             clip-path="url(#clipPath218)"
             id="g214">
            <g
               clip-path="url(#clipPath224)"
               id="g220">
              <path
                 id="path232"
                 style="fill:url(#linearGradient230);stroke:none"
                 d="m 63.746,357.417 c 0,-1.677 -1.171,-2.45 -2.982,-2.45 -1.465,0 -2.475,0.48 -3.222,0.773 -1.198,0.452 -2.048,-0.373 -2.048,-1.226 0,-0.573 0.404,-0.957 0.878,-1.209 0.459,-0.245 0.965,-0.433 1.46,-0.591 1.008,-0.321 2.064,-0.436 3.119,-0.436 0.716,0 1.436,0.048 2.138,0.199 0.654,0.141 1.407,0.372 1.919,0.826 0.056,0.05 0.109,0.105 0.152,0.168 0.313,0.45 0.388,1.065 0.388,1.55 0,1.577 -0.795,2.929 -1.99,4.06 -0.383,0.363 -0.699,0.743 -1.235,1.024 0.954,-0.714 1.423,-1.57 1.423,-2.688"
                 inkscape:connector-curvature="0" />
            </g>
          </g>
        </g>
        <g
           id="g234"
           transform="matrix(0.35277777,0,0,-0.35277777,-15.611591,136.78491)">
          <g
             clip-path="url(#clipPath240)"
             id="g236">
            <g
               clip-path="url(#clipPath246)"
               id="g242">
              <path
                 id="path254"
                 style="fill:url(#linearGradient252);stroke:none"
                 d="m 49.047,352.53 c 0.002,0.001 0.004,0.001 0.006,0.001 -0.002,0 -0.004,0 -0.006,-0.001"
                 inkscape:connector-curvature="0" />
            </g>
          </g>
        </g>
        <g
           id="g256"
           transform="matrix(0.35277777,0,0,-0.35277777,-15.611591,136.78491)">
          <g
             clip-path="url(#clipPath262)"
             id="g258">
            <path
               id="path270"
               style="fill:url(#linearGradient268);stroke:none"
               d="m 57.337,369.932 h 10e-4 -10e-4"
               inkscape:connector-curvature="0" />
          </g>
        </g>
        <g
           id="g272"
           transform="matrix(0.35277777,0,0,-0.35277777,-15.611591,136.78491)">
          <g
             clip-path="url(#clipPath278)"
             id="g274">
            <g
               clip-path="url(#clipPath284)"
               id="g280">
              <path
                 id="path292"
                 style="fill:url(#linearGradient290);stroke:none"
                 d="m 57.338,369.932 h -10e-4 c -0.064,-0.057 -0.125,-0.117 -0.183,-0.179 -0.461,-0.444 -0.833,-0.966 -1.128,-1.535 -0.264,-0.503 -0.471,-1.038 -0.644,-1.573 -0.194,-0.604 -0.35,-1.224 -0.488,-1.852 -0.464,-2.078 -0.757,-4.226 -1.749,-6.032 -0.793,-1.443 -1.973,-2.457 -3.453,-3.165 -0.871,-0.384 -1.826,-0.636 -3.079,-0.636 -0.602,0 -1.163,0.061 -1.684,0.181 -1.302,0.295 -2.344,0.943 -3.119,1.837 0.099,-0.132 0.201,-0.26 0.309,-0.382 0.938,-1.051 2.967,-3.254 7.624,-3.904 0.457,0.125 0.894,0.285 1.293,0.489 0.455,0.234 0.886,0.501 1.295,0.794 0.647,0.471 1.233,1.009 1.756,1.606 0.847,0.966 1.524,2.076 2.029,3.273 0.198,0.472 0.371,0.957 0.514,1.452 0.08,0.271 0.153,0.546 0.22,0.821 0.218,0.876 0.451,2.012 0.64,2.902 0.004,0.017 -0.669,1.719 -0.716,2.762 -0.031,0.7 0.083,1.436 0.301,2.155 0.053,0.337 0.148,0.473 0.302,0.786 0.014,0.029 0.053,0.056 0.068,0.084 0.019,0.016 0.247,0.177 0.183,0.22 l 0.41,0.453 c -0.056,-0.042 -0.649,-0.512 -0.7,-0.557"
                 inkscape:connector-curvature="0" />
            </g>
          </g>
        </g>
        <g
           id="g294"
           transform="matrix(0.35277777,0,0,-0.35277777,-15.611591,136.78491)">
          <g
             clip-path="url(#clipPath300)"
             id="g296">
            <g
               clip-path="url(#clipPath306)"
               id="g302">
              <path
                 id="path314"
                 style="fill:url(#linearGradient312);stroke:none"
                 d="m 43.523,371.079 c -0.769,-0.222 -1.572,-0.525 -2.251,-0.954 -0.66,-0.417 -1.273,-0.906 -1.817,-1.46 -0.081,-0.081 -0.164,-0.16 -0.241,-0.245 -0.282,-0.31 -0.541,-0.64 -0.773,-0.991 -0.14,-0.217 -0.271,-0.44 -0.393,-0.67 0,0 -0.001,-0.001 -0.001,-0.002 -0.642,-1.211 -1.028,-2.599 -1.126,-4.092 0.28,1.597 1.144,3.215 2.22,4.291 2.473,2.473 6.266,2.737 9.439,1.63 0.171,-0.059 0.339,-0.124 0.507,-0.191 0.383,-0.153 0.76,-0.323 1.128,-0.507 0.107,-0.054 0.215,-0.111 0.322,-0.169 0.239,-0.134 0.48,-0.239 0.799,-0.239 0.117,0 0.233,0.016 0.342,0.048 0.561,0.156 0.989,0.694 0.989,1.362 0,0.507 -0.239,0.825 -0.612,1.092 -1.156,0.833 -2.67,1.177 -4.059,1.354 -0.575,0.073 -1.147,0.114 -1.716,0.114 -0.927,0 -1.847,-0.109 -2.757,-0.371"
                 inkscape:connector-curvature="0" />
            </g>
          </g>
        </g>
        <g
           id="g316"
           transform="matrix(0.35277777,0,0,-0.35277777,-15.611591,136.78491)">
          <g
             clip-path="url(#clipPath322)"
             id="g318">
            <g
               clip-path="url(#clipPath328)"
               id="g324">
              <path
                 id="path336"
                 style="fill:url(#linearGradient334);stroke:none"
                 d="m 58.189,370.591 c -0.574,-0.352 -0.945,-0.97 -1.141,-1.6 -0.126,-0.404 -0.192,-0.834 -0.084,-1.25 0.169,-0.648 0.709,-1.129 1.264,-1.503 0.985,-0.664 2.092,-1.124 3.099,-1.752 -0.529,0.398 -1.05,0.834 -1.385,1.405 -0.335,0.572 -0.455,1.307 -0.159,1.899 0.236,0.475 0.712,0.8 1.222,0.945 0.511,0.145 1.054,0.125 1.578,0.045 0.604,-0.092 1.194,-0.262 1.771,-0.463 0.293,-0.103 0.592,-0.215 0.902,-0.212 0.373,0.004 0.74,0.184 0.97,0.476 0.231,0.293 0.32,0.692 0.236,1.054 -0.132,0.574 -0.649,0.981 -1.185,1.225 -0.769,0.349 -1.624,0.458 -2.466,0.526 -0.747,0.061 -1.501,0.088 -2.247,0.008 -0.737,-0.08 -1.464,-0.271 -2.11,-0.641 -0.039,-0.023 -0.077,-0.045 -0.116,-0.069"
                 inkscape:connector-curvature="0" />
            </g>
          </g>
        </g>
        <g
           id="g338"
           transform="matrix(0.35277777,0,0,-0.35277777,-15.611591,136.78491)">
          <g
             clip-path="url(#clipPath344)"
             id="g340">
            <g
               clip-path="url(#clipPath350)"
               id="g346">
              <path
                 id="path358"
                 style="fill:url(#linearGradient356);stroke:none"
                 d="m 57.574,363.886 c 0.515,-0.832 1.327,-1.41 2.115,-1.961 0.867,-0.606 1.727,-1.218 2.609,-1.804 0.618,-0.409 1.166,-0.919 1.651,-1.478 0.881,-1.014 1.647,-2.286 1.585,-3.685 -0.011,-0.252 -0.042,-0.503 -0.115,-0.745 -0.123,-0.41 -0.387,-0.945 -0.77,-1.172 1.946,1.155 2.75,3.4 2.245,5.575 -0.49,2.107 -2.18,3.536 -3.861,4.749 -0.335,0.243 -0.677,0.477 -1.024,0.702 -0.347,0.226 -0.7,0.438 -1.058,0.645 -0.293,0.17 -0.582,0.345 -0.872,0.519 -0.409,0.245 -0.816,0.493 -1.211,0.759 -0.628,0.423 -1.277,0.925 -1.615,1.622 -0.209,0.431 -0.29,0.888 -0.219,1.335 -0.483,-1.593 -0.356,-3.613 0.54,-5.061"
                 inkscape:connector-curvature="0" />
            </g>
          </g>
        </g>
      </g>
    </g>
  </g>
</svg>
