<?xml version="1.0" encoding="UTF-8"?>
<svg version="1.1" xmlns="http://www.w3.org/2000/svg" width="1504" height="1507">
<path d="M0 0 C496.32 0 992.64 0 1504 0 C1504 497.31 1504 994.62 1504 1507 C1007.68 1507 511.36 1507 0 1507 C0 1009.69 0 512.38 0 0 Z " fill="#F15F27" transform="translate(0,0)"/>
<path d="M0 0 C0.94166016 0.73089844 0.94166016 0.73089844 1.90234375 1.4765625 C5.37716491 4.27277153 6.78802735 5.67517091 7.5 10.125 C6.97077573 14.22648807 6.58606011 14.87398568 3.93798828 17.76025391 C3.30040588 18.45870422 2.66282349 19.15715454 2.00592041 19.87677002 C-1.12772928 23.19368077 -4.2917509 26.47378828 -7.5078125 29.7109375 C-8.19632294 30.40514801 -8.88483337 31.09935852 -9.59420776 31.81460571 C-11.036521 33.26628714 -12.48023208 34.71658101 -13.92529297 36.16552734 C-16.133212 38.38324846 -18.33023913 40.61141485 -20.52734375 42.83984375 C-21.93684151 44.25586409 -23.34697551 45.67125148 -24.7578125 47.0859375 C-25.41000763 47.75047943 -26.06220276 48.41502136 -26.73416138 49.09970093 C-30.49947568 52.84672121 -33.53416436 55.72450945 -39.05786133 56.16357422 C-39.7258374 56.1276416 -40.39381348 56.09170898 -41.08203125 56.0546875 C-41.8412085 56.02713379 -42.60038574 55.99958008 -43.38256836 55.97119141 C-44.1844458 55.93944824 -44.98632324 55.90770508 -45.8125 55.875 C-63.65416511 55.55569376 -79.46433572 61.13993053 -93 73 C-93.61488281 73.53238281 -94.22976563 74.06476563 -94.86328125 74.61328125 C-105.13427182 84.15550974 -112.03937693 98.00476875 -113 112 C-113.1035227 115.50172328 -113.09559352 118.99717841 -113.0625 122.5 C-113.05798828 123.4178125 -113.05347656 124.335625 -113.04882812 125.28125 C-113.03716326 127.52090391 -113.02079614 129.76041545 -113 132 C-108.20941341 129.50792433 -104.87187014 126.08147814 -101.16015625 122.25 C-99.83670778 120.90613257 -98.51313629 119.56238627 -97.18945312 118.21875 C-95.12216388 116.10797767 -93.05742072 113.99478815 -90.99536133 111.87890625 C-88.99430615 109.82942883 -86.98401241 107.78936161 -84.97265625 105.75 C-84.05831566 104.80302246 -84.05831566 104.80302246 -83.12550354 103.83691406 C-77.36689263 98.01241811 -72.78697148 95.67074841 -64.53620911 95.5831604 C-63.59226791 95.58923309 -62.64832672 95.59530579 -61.67578125 95.6015625 C-60.69256393 95.59869232 -59.70934662 95.59582214 -58.69633484 95.59286499 C-56.62624533 95.59082996 -54.55613635 95.59632044 -52.48608398 95.60888672 C-49.31255424 95.62499972 -46.14028811 95.60899222 -42.96679688 95.58984375 C-40.95312219 95.59182527 -38.93944828 95.59566705 -36.92578125 95.6015625 C-35.97576736 95.59548981 -35.02575348 95.58941711 -34.04695129 95.5831604 C-33.1656102 95.59261688 -32.2842691 95.60207336 -31.3762207 95.61181641 C-30.6015596 95.61420319 -29.8268985 95.61658997 -29.02876282 95.61904907 C-26.41580081 96.109698 -25.54374595 96.85220327 -24 99 C-23.61231995 100.9773407 -23.61231995 100.9773407 -23.59594727 103.25268555 C-23.57692101 104.53498299 -23.57692101 104.53498299 -23.55751038 105.84318542 C-23.56044601 106.76505142 -23.56338165 107.68691742 -23.56640625 108.63671875 C-23.5611644 109.5901265 -23.55592255 110.54353424 -23.55052185 111.52583313 C-23.54409512 113.54577664 -23.54544704 115.56575754 -23.55395508 117.58569336 C-23.56242075 120.65873115 -23.53378464 123.72988242 -23.50195312 126.80273438 C-23.50033977 128.76822861 -23.5009212 130.73372612 -23.50390625 132.69921875 C-23.49267227 133.61096359 -23.48143829 134.52270844 -23.46986389 135.46208191 C-23.56884833 144.64861386 -26.70676115 150.1871863 -33.17962646 156.55586243 C-33.83706848 157.18324814 -34.4945105 157.81063385 -35.171875 158.45703125 C-35.8542926 159.12667404 -36.53671021 159.79631683 -37.23980713 160.48625183 C-39.4004312 162.60493991 -41.57379294 164.70982974 -43.75 166.8125 C-45.93946609 168.9339807 -48.12572019 171.058358 -50.30303955 173.19230652 C-51.65341277 174.51535443 -53.01093735 175.83115021 -54.37615967 177.13887024 C-54.98389221 177.73346542 -55.59162476 178.32806061 -56.21777344 178.94067383 C-56.75642029 179.46059402 -57.29506714 179.98051422 -57.85003662 180.51618958 C-59.30628755 182.08232935 -59.30628755 182.08232935 -59 185 C-55.66674246 185.05874776 -52.33362062 185.09384467 -49 185.125 C-47.59814453 185.15013672 -47.59814453 185.15013672 -46.16796875 185.17578125 C-29.75325669 185.29056945 -14.1055116 177.9836489 -2.25 166.75 C11.489026 152.2258868 15.16661128 136.10611498 15.34179688 116.765625 C15.38336914 115.21101563 15.38336914 115.21101563 15.42578125 113.625 C15.44036377 112.68914062 15.45494629 111.75328125 15.4699707 110.7890625 C16.98113942 102.83715488 24.46386399 97.26356581 29.9453125 91.82421875 C30.92166047 90.84906455 31.89763724 89.87353856 32.8732605 88.8976593 C34.9093334 86.86314356 36.94870061 84.83201104 38.99072266 82.8034668 C41.60979301 80.20146445 44.22215282 77.59284828 46.83232307 74.9819212 C48.8428527 72.97166308 50.85597439 70.96401821 52.8699913 68.95725441 C53.83466275 67.99576603 54.79872894 67.03367001 55.76218033 66.07095909 C57.10472766 64.73057464 58.45095715 63.39388132 59.79736328 62.05737305 C60.94508713 60.9153669 60.94508713 60.9153669 62.11599731 59.75028992 C65.13588996 56.94472722 67.60139637 56.5271648 71.73046875 56.6015625 C76.24837021 57.39472248 79.49324645 60.18644192 83 63 C83.81726563 63.65355469 84.63453125 64.30710937 85.4765625 64.98046875 C100.70223243 77.91993128 112.81675195 98.28250032 114.81469727 118.41918945 C115.17251618 123.40272534 115.2258711 128.38031713 115.25 133.375 C115.2809375 134.96441406 115.2809375 134.96441406 115.3125 136.5859375 C115.34817033 143.86268499 114.28657843 150.10108222 112 157 C111.43539062 158.73056641 111.43539062 158.73056641 110.859375 160.49609375 C101.46547219 185.40316704 84.93488866 202.18467973 61.00292969 213.14257812 C51.79763465 217.08321637 42.7069244 219.15164888 32.73484802 219.14044189 C31.90599801 219.14341302 31.07714799 219.14638414 30.22318131 219.1494453 C27.44752402 219.15811248 24.67190997 219.15963888 21.89624023 219.16113281 C19.90514535 219.16576248 17.91405135 219.17078735 15.92295837 219.17617798 C10.51353067 219.1892919 5.10411537 219.19574528 -0.30532575 219.20018864 C-3.68763664 219.20312173 -7.06994415 219.20722705 -10.45225334 219.21169281 C-21.04234697 219.22536672 -31.63243287 219.23503321 -42.22253472 219.2388947 C-54.43243282 219.24337163 -66.64221877 219.26090305 -78.85208279 219.2898953 C-88.2985798 219.31154425 -97.74504534 219.32160074 -107.19156688 219.32293582 C-112.82912093 219.32398178 -118.46656952 219.32984492 -124.10409737 219.34775543 C-129.41221414 219.36429107 -134.72014683 219.36636498 -140.02828026 219.35761642 C-141.96960571 219.35684892 -143.91094128 219.36115073 -145.85224152 219.37107468 C-168.58043715 219.48038617 -185.73188517 214.11923016 -202.24609375 197.77734375 C-215.70196409 183.35488915 -221.70975784 165.03155949 -221.30859375 145.4453125 C-219.61724986 126.56220728 -210.97973617 110.0384963 -197.0625 97.1875 C-182.09289253 84.74754787 -166.50364167 81.13081468 -147.5 80.4375 C-146.39140625 80.39431641 -145.2828125 80.35113281 -144.140625 80.30664062 C-141.42718494 80.20137786 -138.71366583 80.09924154 -136 80 C-135.9906543 79.27111572 -135.98130859 78.54223145 -135.97167969 77.79125977 C-135.50367417 48.66250485 -131.04455098 26.26068106 -110.75 4.3125 C-79.29701185 -25.33699112 -33.47486873 -26.04306675 0 0 Z " fill="#FEFEFE" transform="translate(418,658)"/>
<path d="M0 0 C7.24900297 4.20309501 8.59589349 11.21076637 10.9609375 18.83203125 C11.39903906 20.19307755 11.83889633 21.55355986 12.28042603 22.91349792 C13.43225212 26.47710715 14.56021226 30.04782941 15.68322754 33.62060547 C16.83558891 37.27188495 18.01055631 40.91586878 19.18359375 44.56054688 C21.47780853 51.70011503 23.74683804 58.84735615 26 66 C27.68293227 63.4756016 28.52676592 61.78283613 29.44873047 58.97851562 C29.71595917 58.17337524 29.98318787 57.36823486 30.2585144 56.53869629 C30.54187653 55.66998901 30.82523865 54.80128174 31.1171875 53.90625 C31.41561554 53.00434937 31.71404358 52.10244873 32.02151489 51.17321777 C32.97694129 48.28353212 33.9262781 45.39189304 34.875 42.5 C45.60266191 9.91520856 45.60266191 9.91520856 50 2 C53.13871188 0.43064406 55.53855822 0.64798897 59 1 C62 3.125 62 3.125 64 6 C63.61945591 10.37192418 62.33001447 14.28911644 60.87036133 18.40991211 C60.65552094 19.02067596 60.44068054 19.63143982 60.21932983 20.26071167 C59.51178394 22.26802131 58.79708783 24.27269856 58.08203125 26.27734375 C57.58182067 27.6900268 57.08196427 29.10283531 56.58244324 30.51576233 C55.53391542 33.47817992 54.48199702 36.43936377 53.42749023 39.3996582 C52.0919987 43.14919891 50.7635018 46.90116819 49.43745899 50.65405941 C48.40422298 53.576445 47.36783842 56.49770648 46.33051109 59.41864204 C45.84065637 60.79871594 45.35156287 62.17906032 44.8633213 63.55970573 C42.28093015 70.85483927 39.62930258 78.12384731 36.83862305 85.34204102 C36.36692184 86.57140884 35.89522064 87.80077667 35.40922546 89.06739807 C34 92 34 92 31 94 C28.87890625 94.3359375 28.87890625 94.3359375 26.5625 94.375 C25.80066406 94.40335938 25.03882813 94.43171875 24.25390625 94.4609375 C21.00195724 93.7958942 20.10852123 92.58845138 18 90 C16.59585342 86.99037374 15.55595586 83.87775746 14.50390625 80.73046875 C14.18848373 79.81727371 13.87306122 78.90407867 13.54808044 77.96321106 C12.54191608 75.04160474 11.55208108 72.11475946 10.5625 69.1875 C9.90144511 67.26070561 9.2393457 65.33426924 8.57617188 63.40820312 C6.98940423 58.79011818 5.42020591 54.16633656 3.85919189 49.53948975 C3.05028616 47.14862941 2.23320979 44.76073431 1.41357422 42.37353516 C0.95128821 41.01602174 0.48919645 39.65844215 0.02734375 38.30078125 C-0.368479 37.14360596 -0.76430176 35.98643066 -1.17211914 34.79418945 C-2 32 -2 32 -2 29 C-2.66 29 -3.32 29 -4 29 C-4.39179443 30.92017944 -4.39179443 30.92017944 -4.79150391 32.87915039 C-5.94118146 38.03985946 -7.5741581 42.95391779 -9.3359375 47.93359375 C-9.65656158 48.85157242 -9.97718567 49.76955109 -10.30752563 50.71534729 C-10.98255999 52.64481485 -11.66003612 54.57342973 -12.33984375 56.5012207 C-13.37023864 59.42399414 -14.39278645 62.34942 -15.4140625 65.27539062 C-16.07506049 67.16161972 -16.73650425 69.04769267 -17.3984375 70.93359375 C-17.85021866 72.224683 -17.85021866 72.224683 -18.31112671 73.54185486 C-19.83647195 77.86029986 -21.40498553 82.1625681 -23.03759766 86.44165039 C-23.34154449 87.24413712 -23.64549133 88.04662384 -23.95864868 88.87342834 C-25.05116093 91.10447712 -26.08218194 92.43361225 -28 94 C-30.33984375 94.46875 -30.33984375 94.46875 -32.9375 94.5 C-33.79214844 94.5309375 -34.64679687 94.561875 -35.52734375 94.59375 C-39.12483809 93.7298967 -39.92713147 92.04445617 -42 89 C-43.27936399 86.1520053 -44.26531973 83.22654912 -45.25 80.265625 C-45.54510468 79.40686768 -45.84020935 78.54811035 -46.14425659 77.66333008 C-47.10524607 74.86189729 -48.05256609 72.05604286 -49 69.25 C-50.33139005 65.35260291 -51.6695595 61.45754502 -53.0078125 57.5625 C-53.34217316 56.586297 -53.67653381 55.61009399 -54.02102661 54.60430908 C-56.15281617 48.39824193 -58.34818126 42.21968475 -60.6171875 36.0625 C-60.8966925 35.30330261 -61.17619751 34.54410522 -61.46417236 33.76190186 C-62.52077625 30.89839978 -63.58006376 28.03601805 -64.65234375 25.17834473 C-65.37541026 23.25114301 -66.09049698 21.32112967 -66.8046875 19.390625 C-67.20671387 18.31844727 -67.60874023 17.24626953 -68.02294922 16.14160156 C-69.08620999 12.72280105 -69.74131028 9.57278661 -70 6 C-68 3.0625 -68 3.0625 -65 1 C-61.5 0.375 -61.5 0.375 -58 1 C-54.04688641 4.3236052 -52.19527638 7.17963651 -50.61230469 12.05957031 C-50.215495 13.25721008 -49.8186853 14.45484985 -49.40985107 15.68878174 C-48.99695801 16.98515487 -48.5843049 18.28160444 -48.171875 19.578125 C-47.73441671 20.91425878 -47.29553092 22.24992596 -46.85528564 23.58514404 C-45.70493501 27.08549921 -44.57222718 30.59130396 -43.44372559 34.09875488 C-41.84491886 39.05665932 -40.22193142 44.00671323 -38.60186768 48.95770264 C-37.73988894 51.59218891 -36.88453486 54.2286856 -36.03436279 56.86700439 C-35.65016174 58.05203552 -35.26596069 59.23706665 -34.87011719 60.45800781 C-34.36312286 62.03089569 -34.36312286 62.03089569 -33.84588623 63.63555908 C-33.2165519 65.9259805 -33.2165519 65.9259805 -32 67 C-29.61289253 60.82552649 -27.551027 54.59767513 -25.73046875 48.234375 C-23.26512694 39.75333146 -20.59595138 31.35137141 -17.77050781 22.98364258 C-17.24981085 21.43194583 -16.73631605 19.87781649 -16.22949219 18.3215332 C-15.48123254 16.02517474 -14.71191769 13.73686839 -13.9375 11.44921875 C-13.60600952 10.41180794 -13.60600952 10.41180794 -13.26782227 9.35343933 C-10.99489064 2.79517831 -7.2415362 -1.33007808 0 0 Z " fill="#FEFBFA" transform="translate(653,712)"/>
<path d="M0 0 C0.99 0.03287109 0.99 0.03287109 2 0.06640625 C2.66 0.06511719 3.32 0.06382812 4 0.0625 C6.97453286 0.904897 8.09436476 2.19822424 10 4.62890625 C10.41801769 7.29629285 10.60469958 9.56999606 10.609375 12.23828125 C10.63417938 13.32849579 10.63417938 13.32849579 10.65948486 14.44073486 C10.70792361 16.75354494 10.72932489 19.06569782 10.75 21.37890625 C10.77816341 22.95055382 10.80809137 24.52217084 10.83984375 26.09375 C10.91368047 29.93874794 10.96327948 33.78338197 11 37.62890625 C11.92981689 36.44711792 11.92981689 36.44711792 12.87841797 35.24145508 C17.26931659 29.83443481 22.27705221 26.76517503 29.26953125 26.0390625 C39.99770843 25.44526033 47.73935265 27.24211599 56.04296875 34.38671875 C63.47534592 41.96172149 66.47650983 51.14152311 66.625 61.56640625 C66.47440307 72.15691409 63.69831256 82.2182608 56.04296875 89.90625 C49.00154356 95.84366589 42.95723589 98.15643238 33.8125 98.25390625 C32.69041138 98.2703418 32.69041138 98.2703418 31.5456543 98.28710938 C25.03679435 98.12056526 19.95217933 96.03030586 14.90625 91.92578125 C13.60416667 90.49348958 12.30208333 89.06119792 11 87.62890625 C10.7525 88.72203125 10.505 89.81515625 10.25 90.94140625 C9 94.62890625 9 94.62890625 7.25 96.56640625 C4.14862519 98.03094435 2.39201872 98.2519301 -1 97.62890625 C-4.33232673 94.48233192 -6.24855105 92.30334548 -6.62818909 87.6761322 C-6.65463227 86.16184147 -6.65395783 84.6469175 -6.63110352 83.13256836 C-6.63825882 82.3009166 -6.64541412 81.46926483 -6.65278625 80.6124115 C-6.66962969 77.87645745 -6.65029869 75.14215196 -6.62890625 72.40625 C-6.62973527 70.49866094 -6.63219592 68.59107195 -6.63621521 66.68348694 C-6.63907012 62.69135969 -6.62440059 58.69979446 -6.59692383 54.70776367 C-6.56281845 49.59409512 -6.56886987 44.48142975 -6.5875864 39.36771297 C-6.59816036 35.43082841 -6.58921535 31.49417682 -6.57420158 27.55731392 C-6.56902378 25.67188776 -6.5694967 23.78643724 -6.57574654 21.90101433 C-6.58120447 19.26542796 -6.56080681 16.63127282 -6.53344727 13.99584961 C-6.54323608 12.83070831 -6.54323608 12.83070831 -6.55322266 11.64202881 C-6.48767905 7.92393979 -6.11459088 5.8080653 -4.09165955 2.64527893 C-2 0.62890625 -2 0.62890625 0 0 Z " fill="#FEFBFA" transform="translate(810,708.37109375)"/>
<path d="M0 0 C4.53416511 2.90001106 5.95448179 5.53249462 7.5703125 10.6015625 C7.88196854 11.55631973 7.88196854 11.55631973 8.19992065 12.53036499 C8.85735298 14.55723892 9.49133065 16.59058787 10.125 18.625 C10.55708571 19.96793406 10.99066716 21.31038783 11.42578125 22.65234375 C13.52353421 29.15699635 15.5349296 35.68481935 17.41748047 42.25537109 C17.85788353 44.00680454 17.85788353 44.00680454 19 45 C19.36762451 43.81446533 19.73524902 42.62893066 20.11401367 41.4074707 C21.48684112 36.99490207 22.88011514 32.58901248 24.27954102 28.18481445 C24.88146367 26.28064127 25.47788593 24.37472001 26.06860352 22.46704102 C26.92051254 19.71929409 27.79224888 16.97851883 28.66796875 14.23828125 C28.92652145 13.38913651 29.18507416 12.53999176 29.45146179 11.66511536 C31.0783951 6.6542566 32.7122045 3.34375494 37 0 C40.98577603 -0.64057115 43.05980544 -0.57085837 46.52636719 1.53393555 C49.74515135 4.74287147 50.73856401 7.74717505 52.078125 12.01953125 C52.33503113 12.79632736 52.59193726 13.57312347 52.85662842 14.37345886 C53.39526064 16.01247177 53.92597697 17.65410482 54.44921875 19.2980957 C55.24573805 21.79911774 56.0658397 24.29137712 56.890625 26.78320312 C57.41286161 28.38235491 57.9337399 29.98195105 58.453125 31.58203125 C58.69476379 32.32081009 58.93640259 33.05958893 59.18536377 33.820755 C60.57770595 38.2165594 61.47478031 42.41711964 62 47 C62.66 47 63.32 47 64 47 C64.309375 45.0509375 64.309375 45.0509375 64.625 43.0625 C65.75838054 37.33892827 67.67794743 32.00910479 69.68383789 26.54785156 C71.39858083 21.8412855 72.80534969 17.16150835 74.0625 12.3125 C75.53838106 7.03455498 76.69210055 3.48734717 81 0 C84 -0.6875 84 -0.6875 87 0 C89.9375 2 89.9375 2 92 5 C91.71497607 11.51829527 89.76336469 17.18128776 87.54296875 23.2734375 C87.19873367 24.23722321 86.8544986 25.20100891 86.49983215 26.19400024 C85.40338173 29.25714559 84.2954154 32.31598549 83.1875 35.375 C82.45436551 37.42161987 81.72193699 39.46849277 80.99023438 41.515625 C80.27927065 43.49762007 79.56770166 45.47939816 78.85546875 47.4609375 C78.52927048 48.36854828 78.2030722 49.27615906 77.86698914 50.21127319 C76.92447543 52.81256009 75.963416 55.40639349 75 58 C74.67359528 58.91533508 74.34719055 59.83067017 74.01089478 60.77374268 C73.68028046 61.66390076 73.34966614 62.55405884 73.0090332 63.47119141 C72.57395195 64.66852402 72.57395195 64.66852402 72.13008118 65.89004517 C70.78736917 68.39699931 69.3984254 69.5076993 67 71 C64.26220486 71.59354543 61.75270424 71.49945974 59 71 C53.06500059 66.98986526 51.46386282 58.58332787 49.625 52 C47.6118905 44.93816438 45.35193276 38.00165479 42.91796875 31.07421875 C42 28 42 28 42 24 C41.34 24 40.68 24 40 24 C39.88671356 24.55188995 39.77342712 25.10377991 39.65670776 25.6723938 C38.51352799 31.0485691 37.07771524 36.2243984 35.3203125 41.4296875 C35.06627655 42.18669952 34.8122406 42.94371155 34.55050659 43.72366333 C34.01694009 45.30592523 33.48070999 46.88729128 32.94189453 48.46777344 C32.12133934 50.88578725 31.32039185 53.30977809 30.51953125 55.734375 C29.99598339 57.27905026 29.47128451 58.82333599 28.9453125 60.3671875 C28.59196335 61.44998489 28.59196335 61.44998489 28.23147583 62.55465698 C26.85965083 66.49960794 25.74197661 68.97556712 22 71 C20 71.43359375 20 71.43359375 18 71.4375 C17.34 71.45683594 16.68 71.47617187 16 71.49609375 C13.09661454 70.77591806 11.95439443 69.23312978 10 67 C8.80439758 64.52949524 8.80439758 64.52949524 7.81762695 61.73168945 C7.25233025 60.15403557 7.25233025 60.15403557 6.6756134 58.54450989 C6.28379379 57.41220444 5.89197418 56.27989899 5.48828125 55.11328125 C5.07458786 53.94169968 4.66089447 52.7701181 4.23466492 51.56303406 C3.13975481 48.45081996 2.05596501 45.33499557 0.97595215 42.21759033 C0.31494854 40.31953093 -0.3541899 38.42455976 -1.02661133 36.53051758 C-2.32397953 32.87425469 -3.60759682 29.21346263 -4.88671875 25.55078125 C-5.28461105 24.42859695 -5.68250336 23.30641266 -6.092453 22.15022278 C-8.19365375 16.04503449 -9.75737488 10.47340131 -10 4 C-7.42337559 -0.22566403 -4.76768623 -0.77839775 0 0 Z " fill="#FEFBFA" transform="translate(896,735)"/>
<path d="M0 0 C0.78310547 -0.00990967 1.56621094 -0.01981934 2.37304688 -0.0300293 C10.40009075 0.08707388 18.10166152 2.19279195 24.3125 7.4375 C28.42594182 12.75793766 31.39971553 17.26916467 31.50537109 24.12084961 C31.52143402 25.06870834 31.53749695 26.01656708 31.55404663 26.9931488 C31.59853118 31.312726 31.63953238 35.63215183 31.66259766 39.9519043 C31.67918695 42.23228133 31.70651563 44.51260575 31.74462891 46.79272461 C31.79927846 50.0795388 31.82125061 53.36513702 31.8359375 56.65234375 C31.85860687 57.67222885 31.88127625 58.69211395 31.90463257 59.74290466 C31.88350461 66.79296143 31.88350461 66.79296143 28.97119141 70.08032227 C25.7264519 71.73665899 23.90666368 72.04927254 20.3125 71.4375 C17.26360073 69.13022487 15.85511811 67.23582675 15.3125 63.4375 C14.44625 64.200625 13.58 64.96375 12.6875 65.75 C5.64008957 71.60349619 -1.71077941 73.25489244 -10.6875 72.4375 C-16.68635826 71.0934395 -23.25008739 68.92175008 -26.90625 63.6953125 C-30.92535829 56.77670466 -31.50015676 51.41461351 -30.6875 43.4375 C-28.58613253 37.50090132 -24.21935409 33.30916671 -18.6875 30.4375 C-13.38882399 28.16890518 -8.5369456 28.13675814 -2.875 28.1875 C-2.02357422 28.17976562 -1.17214844 28.17203125 -0.29492188 28.1640625 C5.51966819 28.18177641 10.67782507 29.00176888 16.3125 30.4375 C15.17726246 22.95981795 15.17726246 22.95981795 10.3125 17.4375 C6.45322203 14.83647811 2.35581718 15.14158215 -2.125 15.1875 C-2.87587891 15.17976562 -3.62675781 15.17203125 -4.40039062 15.1640625 C-8.65406408 15.17902705 -11.77743266 15.60288507 -15.6875 17.4375 C-18.75 17.875 -18.75 17.875 -21.6875 17.4375 C-24.125 15.25 -24.125 15.25 -25.6875 12.4375 C-25.61978394 9.59342551 -25.25232756 8.12272968 -23.44140625 5.92578125 C-17.02757343 0.48330841 -8.04080549 0.05273434 0 0 Z " fill="#FEFBFA" transform="translate(1027.6875,734.5625)"/>
<path d="M0 0 C5.29043342 3.54459039 8.81598125 8.94794376 10.8125 14.9375 C10.92374163 16.4959747 10.98128055 18.05859555 11.00537109 19.62084961 C11.02143402 20.56870834 11.03749695 21.51656708 11.05404663 22.4931488 C11.09853118 26.812726 11.13953238 31.13215183 11.16259766 35.4519043 C11.17918695 37.73228133 11.20651563 40.01260575 11.24462891 42.29272461 C11.29927846 45.5795388 11.32125061 48.86513702 11.3359375 52.15234375 C11.35860687 53.17222885 11.38127625 54.19211395 11.40463257 55.24290466 C11.38350461 62.29296143 11.38350461 62.29296143 8.47119141 65.58032227 C5.2264519 67.23665899 3.40666368 67.54927254 -0.1875 66.9375 C-3.23639927 64.63022487 -4.64488189 62.73582675 -5.1875 58.9375 C-6.05375 59.700625 -6.92 60.46375 -7.8125 61.25 C-14.45929031 66.77074583 -21.02202131 68.31988631 -29.4921875 68.21875 C-35.50099295 67.59174421 -40.50402833 65.3344233 -45.125 61.5 C-50.24517859 55.13856599 -51.6151907 50.09754482 -51.52734375 42.015625 C-50.92351703 36.54648182 -48.51837292 33.05696817 -44.5078125 29.41015625 C-37.89786418 24.3425292 -31.4841237 23.61482675 -23.375 23.6875 C-22.52357422 23.67976562 -21.67214844 23.67203125 -20.79492188 23.6640625 C-14.98033181 23.68177641 -9.82217493 24.50176888 -4.1875 25.9375 C-5.32273754 18.45981795 -5.32273754 18.45981795 -10.1875 12.9375 C-14.04677797 10.33647811 -18.14418282 10.64158215 -22.625 10.6875 C-23.37587891 10.67976562 -24.12675781 10.67203125 -24.90039062 10.6640625 C-29.15406408 10.67902705 -32.27743266 11.10288507 -36.1875 12.9375 C-39.25 13.375 -39.25 13.375 -42.1875 12.9375 C-44.625 10.75 -44.625 10.75 -46.1875 7.9375 C-46.11988033 5.09747373 -45.75051861 3.62484449 -43.94921875 1.42578125 C-33.3329514 -7.54272842 -11.58273615 -6.29024997 0 0 Z " fill="#FEFBFA" transform="translate(1290.1875,739.0625)"/>
<path d="M0 0 C8.96184673 5.5797237 13.93286379 12.98609137 17.25 22.9375 C17.41941458 24.91215189 17.51596621 26.89364037 17.5625 28.875 C17.61857422 30.43541016 17.61857422 30.43541016 17.67578125 32.02734375 C17.25 34.9375 17.25 34.9375 15.89038086 37.0949707 C11.71130756 40.01124127 7.54895479 39.42999238 2.578125 39.328125 C1.54057068 39.32246521 0.50301636 39.31680542 -0.565979 39.31097412 C-3.87778992 39.28859491 -7.18851644 39.23839419 -10.5 39.1875 C-12.74607812 39.16743706 -14.99217321 39.14918594 -17.23828125 39.1328125 C-22.74255709 39.08872518 -28.24620107 39.02179741 -33.75 38.9375 C-32.82568887 40.8859411 -31.88988443 42.82893292 -30.94921875 44.76953125 C-30.42932373 45.85210205 -29.90942871 46.93467285 -29.3737793 48.05004883 C-26.71040906 52.78613059 -23.86354974 54.23298342 -18.75 55.9375 C-11.55121516 56.73014598 -6.01036087 55.55919637 0.25 51.9375 C0.95125 51.339375 1.6525 50.74125 2.375 50.125 C4.25 48.9375 4.25 48.9375 7.875 49.0625 C11.25 49.9375 11.25 49.9375 13.25 52.9375 C13.375 56.25 13.375 56.25 12.25 59.9375 C5.02091135 67.49996895 -4.31195069 69.85854835 -14.4375 70.25 C-23.82229893 70.1338515 -31.5435831 66.98593628 -38.7421875 61 C-42.20238465 57.44555624 -44.57569701 53.37165233 -46.75 48.9375 C-47.12253906 48.21949219 -47.49507812 47.50148438 -47.87890625 46.76171875 C-50.76930433 37.39060749 -50.37975682 24.81208719 -46.0625 16 C-45.01062647 14.27941802 -43.91263448 12.58526253 -42.75 10.9375 C-42.36714844 10.33035156 -41.98429688 9.72320313 -41.58984375 9.09765625 C-33.0412015 -2.94397961 -12.92806687 -6.11327193 0 0 Z " fill="#FEFCFB" transform="translate(770.75,737.0625)"/>
<path d="M0 0 C8.03704095 4.97064379 13.12470799 11.41174078 16.5 20.1875 C18.92882974 32.33164872 18.92882974 32.33164872 15.87451172 37.07250977 C11.75899375 39.99701598 7.71956988 39.43124495 2.796875 39.328125 C1.78151672 39.32246521 0.76615845 39.31680542 -0.27996826 39.31097412 C-3.52046001 39.28859753 -6.7598429 39.23839755 -10 39.1875 C-12.19790069 39.16743671 -14.39581872 39.14918565 -16.59375 39.1328125 C-21.9795445 39.08872871 -27.36469303 39.02180373 -32.75 38.9375 C-32.29554036 40.35541408 -31.83625056 41.77178046 -31.375 43.1875 C-31.11976562 43.97640625 -30.86453125 44.7653125 -30.6015625 45.578125 C-29.08410673 50.2471289 -29.08410673 50.2471289 -25.375 53.0625 C-24.075625 53.495625 -24.075625 53.495625 -22.75 53.9375 C-22.13253906 54.2778125 -21.51507812 54.618125 -20.87890625 54.96875 C-16.28813394 57.05776199 -10.97113377 56.63872886 -6.23828125 55.14453125 C-3.01788725 53.75523731 -0.30116525 52.40761154 2.375 50.125 C4.25 48.9375 4.25 48.9375 7.875 49.0625 C11.25 49.9375 11.25 49.9375 13.25 52.9375 C13.375 56.25 13.375 56.25 12.25 59.9375 C5.28826265 67.22028835 -4.04685521 70.02059613 -13.875 70.25 C-23.77656764 70.14930609 -32.63910685 66.97042283 -39.75 59.9375 C-46.31946278 51.8899081 -49.32194485 43.90850033 -49.1875 33.5625 C-49.17775146 32.72468994 -49.16800293 31.88687988 -49.15795898 31.02368164 C-48.85091662 20.31466859 -45.52848071 13.9024154 -38.1328125 6.140625 C-28.27310364 -2.97556483 -12.47152578 -5.89738816 0 0 Z " fill="#FEFCFB" transform="translate(1175.75,737.0625)"/>
<path d="M0 0 C3.85242824 0.80258922 5.42911459 1.61339137 8 4.625 C8.70186779 7.6234205 8.92775564 10.5513309 9 13.625 C9.515625 12.75875 10.03125 11.8925 10.5625 11 C13.4090473 6.70467235 17.37178829 2.93910585 22 0.625 C26.35477171 0.13200698 28.34134023 0.17217141 32 2.6875 C34 5.625 34 5.625 34.125 9.1875 C32.7563476 13.36949344 31.7818553 14.41891774 28 16.625 C26.5085818 17.13024493 25.0075716 17.6077159 23.5 18.0625 C17.55185896 19.91697847 14.62363841 23.1947438 11.75 28.625 C9.22720138 33.75331195 8.88305741 38.61326035 8.859375 44.28125 C8.84003906 45.55097656 8.82070312 46.82070313 8.80078125 48.12890625 C8.76692902 50.79281603 8.74869798 53.45697016 8.74609375 56.12109375 C8.72160156 57.39082031 8.69710938 58.66054688 8.671875 59.96875 C8.6625293 61.12568359 8.65318359 62.28261719 8.64355469 63.47460938 C7.81081535 67.55111484 6.20166295 69.05090553 3 71.625 C0 72.3125 0 72.3125 -3 71.625 C-6.30210269 68.8633965 -7.74724279 67.12294704 -8.46954346 62.84228516 C-8.66293155 59.33349205 -8.69272745 55.85781667 -8.6640625 52.34375 C-8.66884613 51.05690308 -8.67362976 49.77005615 -8.67855835 48.44421387 C-8.68590717 45.72731331 -8.67529104 43.01123779 -8.65185547 40.29443359 C-8.62336597 36.82390418 -8.63978108 33.35530813 -8.66971779 29.88484955 C-8.69220216 26.55849758 -8.67642784 23.23265679 -8.6640625 19.90625 C-8.67418365 18.66548706 -8.68430481 17.42472412 -8.69473267 16.1463623 C-8.56452852 6.55168926 -8.56452852 6.55168926 -5.64599609 2.83398438 C-3 0.625 -3 0.625 0 0 Z " fill="#FEFAF8" transform="translate(1086,734.375)"/>
<path d="M0 0 C5.95054476 3.39867653 10.60533735 8.63241829 12.78125 15.16015625 C13.48470183 22.8404664 13.20826157 29.64225292 8.78125 36.16015625 C5.11500318 40.11561976 0.93284849 43.65096942 -4.515625 44.53125 C-11.08148658 44.70898829 -15.19776242 43.4319096 -20.21875 39.16015625 C-24.40281835 35.09319923 -26.91075708 30.95716176 -27.5546875 25.109375 C-27.65004463 17.14705489 -27.20680897 11.29626381 -21.53515625 5.4140625 C-15.18759455 -0.27826703 -8.47698905 -3.20871945 0 0 Z " fill="#F1612A" transform="translate(847.21875,748.83984375)"/>
<path d="M0 0 C3.71766788 0.77451414 5.31487371 1.9545529 8 4.625 C8.63491821 7.4261322 8.63491821 7.4261322 8.64697266 10.69116211 C8.66273346 11.91600815 8.67849426 13.14085419 8.69473267 14.40281677 C8.67955093 16.38258263 8.67955093 16.38258263 8.6640625 18.40234375 C8.66743257 19.77470835 8.67228678 21.14707003 8.67855835 22.51942444 C8.68592348 25.39369157 8.67523937 28.26718086 8.65185547 31.14135742 C8.62339245 34.81827071 8.63975472 38.49335722 8.66971779 42.17020321 C8.68782487 45.00396882 8.68201718 47.83730457 8.66907883 50.67108345 C8.66413948 52.68347997 8.67927741 54.69589346 8.69473267 56.70823669 C8.56448251 66.8566383 8.56448251 66.8566383 5.64599609 69.95141602 C3 71.625 3 71.625 0 72.3125 C-3.34286656 71.54642641 -4.83767257 70.44071252 -6.94793701 67.75537109 C-9.28787823 63.0171157 -8.70622292 57.5122398 -8.6640625 52.34375 C-8.66884613 51.05690308 -8.67362976 49.77005615 -8.67855835 48.44421387 C-8.68590717 45.72731331 -8.67529104 43.01123779 -8.65185547 40.29443359 C-8.62336597 36.82390418 -8.63978108 33.35530813 -8.66971779 29.88484955 C-8.69220216 26.55849758 -8.67642784 23.23265679 -8.6640625 19.90625 C-8.67418365 18.66548706 -8.68430481 17.42472412 -8.69473267 16.1463623 C-8.56452852 6.55168926 -8.56452852 6.55168926 -5.64599609 2.83398438 C-3 0.625 -3 0.625 0 0 Z " fill="#FEFAF9" transform="translate(1329,734.375)"/>
<path d="M0 0 C1.11375 -0.01160156 1.11375 -0.01160156 2.25 -0.0234375 C6.759075 -0.00750437 10.37967825 0.5518713 14.625 2.25 C14.97134166 7.11802449 15.12320067 11.08031146 13.1875 15.625 C8.27054079 20.66188504 2.92033243 22.46459813 -4.0625 22.75 C-8.86119991 22.56181569 -11.76363251 21.58356999 -15.375 18.25 C-17.72465355 15.04592697 -17.92061533 12.14725235 -17.375 8.25 C-12.35013688 0.99186439 -8.54237142 -0.08806568 0 0 Z " fill="#F1622C" transform="translate(1029.375,772.75)"/>
<path d="M0 0 C0.34634166 4.86802449 0.49820067 8.83031146 -1.4375 13.375 C-6.35445921 18.41188504 -11.70466757 20.21459813 -18.6875 20.5 C-23.67538473 20.3181136 -26.29634805 19.31379385 -30 16 C-31.86669866 12.26660267 -31.69476464 8.05385607 -31 4 C-24.04534619 -5.50112705 -9.85190583 -2.71776713 0 0 Z " fill="#F1612B" transform="translate(1286,775)"/>
<path d="M0 0 C5.25422938 2.61952187 8.68186325 6.36372649 11.3125 11.625 C12 14 12 14 12 18 C0.12 18 -11.76 18 -24 18 C-22.78998737 10.73992424 -20.66601188 6.6009872 -15.4375 1.5 C-10.39217445 -0.7015966 -5.42508367 -0.81047683 0 0 Z " fill="#F16530" transform="translate(1166,748)"/>
<path d="M0 0 C5.31794683 2.56401008 8.6703154 6.27414657 11.25 11.5625 C12 14 12 14 12 18 C0.12 18 -11.76 18 -24 18 C-22.78998737 10.73992424 -20.66601188 6.6009872 -15.4375 1.5 C-10.29517977 -0.74392156 -5.52295971 -0.75106183 0 0 Z " fill="#F16530" transform="translate(761,748)"/>
<path d="M0 0 C3.0432531 1.9874306 4.62073803 3.32041127 5.4375 6.9375 C5.67021319 10.77726765 5.23162678 12.63711804 3.125 15.9375 C0.64918169 18.34050013 -0.34388577 18.91052988 -3.75 19.375 C-7.20011763 18.9769095 -9.2796776 18.13096715 -11.859375 15.76171875 C-14.20747482 12.13503033 -13.78141849 8.10071829 -13 4 C-10.21712985 -1.08176289 -5.23636963 -1.05286436 0 0 Z " fill="#FEFBFA" transform="translate(1220,787)"/>
<path d="M0 0 C2.3515625 0.41015625 2.3515625 0.41015625 4.9765625 1.91015625 C7.05024477 5.68048765 6.827713 8.12480176 6.3515625 12.41015625 C4.79851937 14.50023299 3.7567629 15.28343627 1.265625 16.0625 C-2.7311932 16.56039715 -4.96940844 16.74967078 -8.6484375 14.91015625 C-11.27279173 11.62971346 -11.7219266 9.59903479 -11.6484375 5.41015625 C-9.15641502 -0.1672274 -5.58492389 -0.32125668 0 0 Z " fill="#FEFAF8" transform="translate(1331.6484375,709.58984375)"/>
</svg>
